<?xml version="1.0" standalone="no"?>
<!DOCTYPE svg PUBLIC "-//W3C//DTD SVG 20010904//EN"
 "http://www.w3.org/TR/2001/REC-SVG-20010904/DTD/svg10.dtd">
<svg version="1.0" xmlns="http://www.w3.org/2000/svg"
 width="256.000000pt" height="256.000000pt" viewBox="0 0 256.000000 256.000000"
 preserveAspectRatio="xMidYMid meet">
<metadata>
Created by potrace 1.14, written by Peter Selinger 2001-2017
</metadata>
<g transform="translate(0.000000,256.000000) scale(0.100000,-0.100000)"
fill="#000000" stroke="none">
<path d="M1151 2497 c-18 -23 -41 -57 -49 -74 -9 -18 -19 -33 -24 -33 -4 0 -8
-9 -8 -20 0 -11 -4 -20 -8 -20 -4 0 -14 -21 -21 -47 -8 -27 -18 -50 -22 -53
-5 -3 -9 -21 -11 -39 -1 -18 -6 -35 -10 -37 -20 -13 1 -118 26 -127 8 -3 12
12 12 57 1 73 13 146 25 146 5 0 9 7 9 16 0 20 42 118 52 122 4 2 8 11 8 21 0
9 4 21 8 27 18 20 62 104 55 103 -4 0 -23 -19 -42 -42z"/>
<path d="M1488 2503 c12 -27 43 -96 53 -115 5 -10 9 -31 9 -48 0 -16 5 -30 10
-30 6 0 10 -11 10 -24 0 -12 4 -36 9 -52 5 -16 19 -74 31 -129 12 -55 25 -116
30 -135 5 -19 12 -56 15 -82 12 -81 22 -44 17 59 -2 54 -4 109 -4 123 1 26
-36 187 -46 205 -3 5 -7 22 -9 37 -2 24 -20 71 -56 145 -15 32 -45 63 -62 63
-10 0 -12 -5 -7 -17z"/>
<path d="M834 2478 c-22 -10 -44 -47 -44 -73 0 -8 -4 -15 -10 -15 -5 0 -10 -8
-10 -18 0 -10 -4 -22 -9 -27 -18 -20 -42 -142 -32 -166 6 -17 10 -20 14 -9 10
35 26 88 38 133 7 26 17 47 21 47 4 0 8 7 8 15 0 14 18 53 30 65 7 7 30 49 30
55 0 7 -12 5 -36 -7z"/>
<path d="M1701 2471 c-14 -9 -12 -45 7 -111 31 -106 71 -297 65 -310 -44 -93
92 -460 244 -657 93 -121 88 -111 56 -105 -15 3 -41 18 -57 35 -16 16 -52 46
-80 67 -28 21 -76 59 -106 84 -30 26 -76 61 -102 78 -27 17 -48 37 -48 44 0 8
-3 14 -7 14 -5 0 -17 14 -28 30 -11 16 -26 30 -33 30 -7 0 -20 4 -30 9 -9 5
-29 14 -44 22 -16 7 -28 20 -28 31 0 10 -4 18 -10 18 -5 0 -34 26 -64 57 -38
40 -52 61 -45 69 15 18 32 183 33 323 1 77 -2 98 -17 118 -10 12 -27 23 -37
23 -16 0 -19 -13 -23 -142 -3 -79 -10 -170 -16 -203 -6 -33 -15 -82 -20 -110
-5 -27 -12 -68 -16 -90 -4 -22 -10 -49 -15 -60 -5 -11 -11 -33 -13 -50 -9 -49
-27 -91 -35 -78 -10 15 -99 35 -123 28 -11 -4 -19 -2 -19 3 0 5 -21 10 -47 11
-145 6 -133 3 -133 33 0 16 5 28 10 28 6 0 10 8 10 17 0 9 7 24 16 34 22 24
10 55 -28 75 -27 14 -29 19 -23 47 7 31 14 106 18 197 1 25 5 50 8 55 6 10 19
54 25 85 2 8 7 23 12 35 6 11 18 42 27 68 16 46 16 49 -1 68 -25 28 -41 24
-68 -18 -25 -39 -79 -210 -71 -223 3 -5 0 -21 -5 -36 -6 -15 -13 -77 -16 -138
-4 -61 -7 -112 -8 -112 0 -1 -38 3 -83 9 -74 10 -83 14 -83 32 0 12 -4 25 -9
31 -12 12 -18 248 -7 294 8 40 55 159 69 178 17 22 -9 13 -59 -20 -43 -29 -52
-41 -71 -98 -18 -53 -22 -84 -20 -169 l2 -103 -33 -28 c-31 -25 -55 -36 -147
-67 -17 -5 -57 -7 -89 -3 -93 10 -114 4 -138 -44 -11 -22 -21 -43 -21 -46 0
-3 -13 -33 -29 -68 -55 -122 -98 -343 -98 -502 l1 -75 20 24 c30 36 34 18 11
-46 -18 -50 -19 -66 -10 -115 9 -53 28 -72 28 -28 0 10 5 22 10 25 6 3 10 15
10 26 0 10 5 19 10 19 6 0 10 7 10 15 0 9 9 34 19 56 11 22 23 54 26 72 4 18
11 37 17 43 8 11 12 24 25 84 3 14 9 30 14 35 12 16 39 98 39 121 0 11 4 24
10 30 5 5 11 29 13 52 3 24 7 45 11 49 3 3 6 19 6 34 0 15 5 31 10 34 6 3 10
17 10 29 0 20 6 25 35 28 19 2 35 2 35 -2 0 -3 -10 -43 -21 -90 -11 -47 -24
-101 -28 -120 -5 -19 -15 -55 -23 -80 -8 -25 -20 -63 -26 -85 -14 -49 -65
-203 -87 -264 -9 -25 -39 -88 -66 -141 l-50 -97 29 -74 c84 -208 245 -421 418
-550 32 -24 67 -51 76 -59 18 -16 170 -100 182 -100 3 0 6 15 6 34 0 19 4 37
9 40 4 3 11 36 16 73 9 84 9 92 -1 123 l-7 25 25 -26 c39 -41 114 -70 188 -74
96 -4 140 4 140 25 0 29 -22 38 -98 38 -98 1 -203 37 -243 83 -9 11 -21 19
-26 19 -6 0 -37 27 -69 60 -33 33 -63 60 -68 60 -5 0 -24 17 -42 38 -74 87
-105 135 -107 165 -2 18 -6 37 -10 44 -8 13 -15 82 -21 213 -4 83 9 193 26
227 6 13 12 46 12 75 1 57 31 133 56 142 8 3 22 9 30 13 13 6 13 4 0 -12 -11
-13 -15 -44 -15 -119 0 -111 9 -136 65 -193 35 -36 46 -39 85 -21 27 12 95
106 95 132 0 8 5 18 10 21 6 3 10 18 10 32 0 21 4 24 21 20 12 -3 26 -1 33 4
6 5 20 16 31 23 19 14 19 15 1 35 -11 12 -25 21 -33 21 -20 0 -48 70 -33 80 9
6 9 13 0 30 -10 19 -17 21 -55 15 -25 -3 -53 -1 -64 4 -12 6 -30 16 -41 21
-15 7 -33 7 -63 -1 -59 -16 -97 -33 -97 -41 0 -5 -4 -8 -8 -8 -9 0 -7 148 2
158 3 3 6 15 6 26 0 45 16 49 39 12 12 -20 19 -41 16 -47 -19 -29 96 -99 138
-83 8 3 39 1 68 -4 42 -8 59 -7 86 6 33 16 33 16 62 -19 28 -34 30 -34 109
-34 45 0 84 -4 88 -8 4 -4 22 -7 41 -7 19 0 45 -7 58 -16 33 -22 64 -9 82 33
l14 35 23 -21 c35 -32 193 -74 278 -73 17 1 43 -13 71 -39 25 -21 49 -39 54
-39 5 0 23 -15 40 -32 l32 -33 -14 -75 c-7 -41 -26 -113 -40 -160 -15 -47 -36
-118 -46 -158 -27 -102 -98 -190 -278 -345 -25 -22 -30 -31 -21 -41 18 -23 97
-39 158 -33 l57 6 -40 -24 c-22 -13 -45 -29 -52 -34 -7 -6 -17 -11 -22 -11
-12 0 -40 -24 -122 -102 -33 -32 -64 -58 -69 -58 -6 0 -10 -5 -10 -10 0 -6
-22 -33 -50 -61 -34 -33 -50 -58 -50 -75 0 -14 -6 -35 -12 -47 -18 -32 -46
-121 -41 -130 15 -25 311 7 473 51 59 16 65 20 63 42 -1 14 -3 108 -3 210 -2
199 9 290 54 464 14 54 26 107 26 116 0 10 4 20 9 22 5 2 11 30 12 63 2 33 9
69 16 80 7 10 16 41 19 67 4 27 11 51 15 54 5 3 9 21 9 40 0 19 3 34 6 34 3 0
19 -13 35 -29 16 -17 39 -33 50 -36 18 -6 20 -12 15 -53 -4 -26 -7 -74 -8
-107 -1 -33 -5 -67 -9 -75 -58 -126 -82 -225 -98 -400 -13 -139 -18 -396 -9
-405 8 -8 114 50 124 67 4 6 3 8 -3 5 -6 -4 -17 1 -26 11 -16 18 -25 132 -14
182 4 14 9 79 12 144 3 66 10 127 15 136 5 10 7 20 4 22 -2 3 0 18 7 34 6 16
15 52 20 79 4 28 18 91 30 140 11 50 24 117 28 150 9 72 18 95 38 95 7 0 24
12 37 27 22 25 23 29 9 62 -8 20 -20 43 -27 51 -18 23 -19 68 -3 85 13 12 20
12 57 -6 27 -13 56 -19 77 -17 34 4 35 4 30 -31 -4 -34 -58 -253 -97 -391 -42
-151 -80 -383 -80 -497 0 -34 -4 -65 -10 -68 -12 -7 -4 -105 10 -119 6 -6 18
-2 35 14 25 23 33 54 17 64 -11 7 -7 107 7 181 7 33 16 85 21 115 9 62 42 190
59 234 7 16 9 36 6 44 -3 8 1 22 9 31 8 9 17 30 20 46 19 95 29 142 36 160 7
17 15 55 36 164 3 13 12 30 19 38 8 8 16 24 17 36 2 36 3 41 11 55 5 7 8 105
8 218 0 201 0 206 -25 247 -13 23 -32 51 -41 62 -16 19 -16 17 -10 -35 3 -30
9 -133 12 -229 5 -169 -2 -235 -29 -266 -4 -5 -8 -17 -8 -26 0 -10 -4 -21 -10
-24 -5 -3 -7 0 -4 8 3 8 -6 21 -20 31 -14 9 -33 31 -42 49 -30 56 -64 178 -64
226 0 25 -4 84 -10 131 -5 47 -10 103 -11 125 -2 57 -29 167 -45 186 -8 9 -10
19 -5 25 23 23 -2 65 -63 109 -33 24 -62 43 -63 41 -1 -1 11 -40 26 -86 16
-47 34 -116 40 -155 7 -38 17 -84 22 -101 5 -17 9 -59 9 -95 0 -77 24 -254 43
-326 8 -29 12 -53 10 -53 -2 0 -26 18 -54 40 -28 22 -57 40 -65 40 -20 0 -50
63 -101 213 -9 26 -20 47 -25 47 -5 0 -7 8 -4 18 3 9 1 46 -5 82 -5 36 -12 90
-15 120 -10 107 -59 300 -77 300 -5 0 -7 9 -4 20 3 11 -1 27 -10 35 -17 17
-23 18 -42 6z m-1111 -576 c0 -8 -4 -15 -10 -15 -5 0 -10 7 -10 15 0 8 5 15
10 15 6 0 10 -7 10 -15z m233 -91 c60 -31 54 -37 -49 -49 -50 -5 -66 -3 -95
13 -53 29 -50 50 8 55 26 2 56 4 66 5 10 1 41 -10 70 -24z m584 -46 c25 -24
30 -44 11 -51 -24 -8 -48 13 -48 43 0 36 6 37 37 8z m168 -146 c43 -21 47 -26
30 -32 -11 -4 -31 -3 -43 1 -13 5 -28 7 -32 4 -5 -3 -26 1 -47 9 -21 8 -50 17
-65 20 -40 9 -34 27 7 24 19 -1 37 1 41 5 10 10 51 -2 109 -31z m-861 -115
c17 -12 17 -15 -1 -48 -23 -41 -47 -48 -63 -19 -9 17 -9 29 0 51 13 31 36 37
64 16z m-468 -555 c-10 -9 -66 40 -66 58 0 51 13 51 41 -1 16 -29 27 -54 25
-57z m1471 -84 c-3 -8 -6 -5 -6 6 -1 11 2 17 5 13 3 -3 4 -12 1 -19z m-51
-166 c-5 -20 -18 -34 -42 -45 -55 -27 -56 -20 -6 31 26 26 49 47 50 46 2 -2 1
-16 -2 -32z"/>
<path d="M1830 2418 c0 -7 8 -33 16 -58 34 -94 61 -235 104 -555 5 -38 9 -77
9 -84 1 -9 4 -11 10 -5 10 11 21 114 11 114 -3 0 -7 33 -9 73 -4 91 -7 120
-19 179 -5 26 -7 49 -5 52 3 3 1 11 -3 18 -5 7 -9 20 -11 28 -7 57 -27 130
-34 130 -5 0 -9 14 -9 30 0 17 -4 30 -10 30 -5 0 -10 8 -10 18 0 19 -18 42
-32 42 -4 0 -8 -6 -8 -12z"/>
<path d="M304 2053 c-25 -3 -49 -12 -59 -24 -10 -10 -13 -19 -7 -19 6 0 13 6
15 13 4 9 7 9 14 0 7 -10 17 -9 46 4 20 10 37 21 37 25 0 4 -1 7 -2 6 -2 -1
-22 -3 -44 -5z"/>
<path d="M2436 1803 c12 -29 18 -542 6 -567 -18 -37 -32 -88 -32 -117 0 -16
-4 -29 -10 -29 -5 0 -10 -13 -10 -29 0 -17 -4 -33 -10 -36 -5 -3 -10 -15 -10
-26 0 -10 -4 -27 -9 -37 -8 -15 -60 -180 -81 -257 -20 -75 -31 -154 -28 -204
l3 -55 27 40 c20 29 28 54 30 97 2 33 6 61 10 64 5 2 8 22 8 43 0 21 4 40 8
42 9 4 52 136 52 161 0 9 5 17 10 17 6 0 10 8 10 17 0 9 9 44 20 77 35 106 40
122 40 140 0 9 10 36 21 59 21 39 22 55 20 239 -1 163 -5 205 -20 250 -27 75
-50 128 -57 128 -3 0 -3 -8 2 -17z"/>
<path d="M1311 1459 c-12 -13 -21 -29 -21 -36 0 -7 -10 -17 -21 -24 -17 -8
-24 -8 -36 4 -19 19 -61 10 -69 -16 -11 -34 45 -77 102 -77 42 0 44 -1 33 -21
-20 -38 -14 -133 13 -180 31 -57 66 -81 129 -87 47 -4 54 -2 78 24 15 16 35
34 46 40 11 6 21 24 23 40 2 16 6 36 9 44 12 30 13 73 2 86 -6 7 -9 20 -7 29
2 11 8 5 19 -17 26 -55 38 -97 28 -104 -5 -3 -9 -16 -9 -29 0 -13 -4 -27 -10
-30 -5 -3 -10 -26 -10 -51 0 -37 3 -45 16 -42 9 2 24 17 34 35 9 17 25 44 35
59 10 15 18 40 17 56 0 21 4 28 19 28 25 0 25 31 -1 48 -11 7 -20 18 -20 26 0
24 -27 66 -61 97 -47 42 -127 69 -207 69 -59 0 -68 3 -77 22 -14 31 -30 33
-54 7z m124 -143 c13 -20 14 -28 3 -52 -22 -50 -34 -57 -52 -29 -21 31 -20 50
2 80 22 31 28 31 47 1z"/>
<path d="M892 1238 c-20 -26 -42 -92 -42 -129 0 -44 0 -43 33 -28 31 14 82
118 72 148 -7 24 -46 29 -63 9z"/>
<path d="M867 936 c-9 -7 -27 -11 -40 -9 -18 3 -26 -4 -44 -39 -12 -24 -24
-57 -27 -74 -13 -79 67 -187 129 -174 6 1 18 4 29 6 24 4 56 33 56 50 0 7 4
14 10 16 5 2 10 30 12 64 3 74 -19 124 -66 153 -39 24 -36 24 -59 7z m38 -78
c34 -40 37 -98 8 -130 -26 -29 -48 -21 -71 25 -20 40 -21 49 -10 94 14 58 31
61 73 11z"/>
</g>
</svg>
